<mxfile host="app.diagrams.net" modified="2022-10-15T16:11:40.541Z" agent="5.0 (Macintosh; Intel Mac OS X 10_15_6) AppleWebKit/605.1.15 (KHTML, like Gecko) Version/15.6,2 Safari/605.1.15" etag="df1gPrZMYy2WLFZiKA5e" version="20.4.0" type="github">
  <diagram id="769WcSzuBKZlgow3Vv-x" name="Page-1">
    <mxGraphModel dx="964" dy="917" grid="1" gridSize="10" guides="1" tooltips="1" connect="1" arrows="1" fold="1" page="1" pageScale="1" pageWidth="850" pageHeight="1100" background="#182E3E" math="0" shadow="0">
      <root>
        <mxCell id="0" />
        <mxCell id="1" parent="0" />
        <mxCell id="XGes7uFG83Vpowc-NiVa-1" value="Hubble" style="rounded=0;whiteSpace=wrap;html=1;fontSize=20;aspect=fixed;" vertex="1" parent="1">
          <mxGeometry x="380.5" y="100" width="148" height="74" as="geometry" />
        </mxCell>
        <mxCell id="XGes7uFG83Vpowc-NiVa-2" value="Cilium" style="rounded=0;whiteSpace=wrap;html=1;fontSize=20;aspect=fixed;" vertex="1" parent="1">
          <mxGeometry x="380.5" y="207" width="148" height="74" as="geometry" />
        </mxCell>
        <mxCell id="XGes7uFG83Vpowc-NiVa-3" value="eBPF" style="rounded=0;whiteSpace=wrap;html=1;fontSize=20;aspect=fixed;" vertex="1" parent="1">
          <mxGeometry x="380.5" y="313" width="148" height="74" as="geometry" />
        </mxCell>
        <mxCell id="XGes7uFG83Vpowc-NiVa-4" value="L - kernel" style="rounded=0;whiteSpace=wrap;html=1;fontSize=20;aspect=fixed;" vertex="1" parent="1">
          <mxGeometry x="380.5" y="420" width="148" height="74" as="geometry" />
        </mxCell>
      </root>
    </mxGraphModel>
  </diagram>
</mxfile>
